<?xml version="1.0" encoding="UTF-8"?>
<!DOCTYPE svg PUBLIC "-//W3C//DTD SVG 1.1//EN" "http://www.w3.org/Graphics/SVG/1.1/DTD/svg11.dtd">
<!-- Creator: CorelDRAW X7 -->
<svg xmlns="http://www.w3.org/2000/svg" xml:space="preserve" width="200" height="200" version="1.1" style="shape-rendering:geometricPrecision; text-rendering:geometricPrecision; image-rendering:optimizeQuality; fill-rule:evenodd; clip-rule:evenodd"
viewBox="0 0 1684 1684"
 xmlns:xlink="http://www.w3.org/1999/xlink">
 <defs>
  <style type="text/css">
   <![CDATA[
    .str0 {stroke:#000;stroke-width:184.181}
    .fil2 {fill:none}
    .fil0 {fill:#000}
    .fil1 {fill:#000;fill-rule:nonzero}
   ]]>
  </style>
 </defs>
 <g id="Layer_x0020_1">
  <metadata id="CorelCorpID_0Corel-Layer"/>
  <g id="_2436081223584">
   <polygon class="fil0" points="1332,220 1200,127 851,638 1048,641 "/>
   <polygon class="fil0" points="310,1458 443,1551 783,1048 585,1045 "/>
   <path class="fil1" d="M356 707c1,0 4,-3 9,-8 3,-3 8,-4 13,-4 1,0 7,0 15,1 2,1 4,3 4,7l15 61c1,3 1,5 1,5 0,3 -1,4 -3,5 -2,1 -7,1 -15,1 -9,0 -15,-1 -18,-2 -2,-2 -8,-8 -15,-20 -16,-23 -31,-35 -43,-35 -9,0 -14,4 -14,12 0,10 14,31 41,61 31,35 52,60 61,76 10,15 14,33 14,52 0,23 -8,40 -24,53 -17,12 -35,18 -56,18 -13,0 -25,-2 -37,-7 -5,-2 -9,-3 -11,-3 -3,0 -5,1 -6,3 -3,5 -10,7 -21,7 -5,0 -8,0 -9,-1 -2,-1 -3,-4 -3,-7l-14 -60c-2,-7 -3,-11 -3,-12 0,-3 5,-5 15,-5 13,0 20,1 23,3 2,3 5,8 10,16 15,29 31,43 47,43 6,0 11,-1 15,-4 4,-3 6,-7 6,-11 0,-7 -5,-16 -13,-27 -8,-10 -18,-21 -30,-34 -29,-30 -49,-54 -61,-72 -11,-18 -17,-36 -17,-55 0,-21 7,-38 21,-50 14,-13 31,-19 52,-19 14,0 31,4 51,12zm154 13l-12 0c-4,0 -8,1 -10,5 -3,3 -5,13 -8,28 -1,7 -3,11 -6,13 -3,2 -8,2 -16,2 -8,0 -13,0 -15,-2 -3,-1 -4,-3 -4,-7 0,-2 0,-4 1,-6l3 -42c0,-5 1,-8 4,-9 2,-2 7,-3 16,-3l199 0c6,0 9,1 11,2 1,1 2,4 3,10l4 37c1,3 1,6 1,9 0,3 -1,6 -2,8 -2,2 -6,3 -13,3 -9,0 -15,-1 -18,-2 -2,-1 -5,-5 -6,-11 -3,-11 -6,-19 -10,-26 -3,-6 -8,-9 -13,-9l-8 0 0 228c0,7 5,11 13,14 4,1 7,2 8,4 1,1 1,4 1,9 0,6 0,9 -2,10 -2,1 -5,2 -11,2l-120 0c-5,0 -8,-1 -9,-2 -2,-1 -2,-5 -2,-10 0,-7 3,-11 8,-12 6,-2 9,-3 11,-5 1,-1 2,-3 2,-7l0 -231zm296 205l-68 0 -3 17c0,0 0,1 -1,1 -1,4 -2,7 -2,9 0,5 4,8 13,11 4,2 7,3 8,5 1,2 2,5 2,8 0,5 -1,8 -2,9 0,1 -2,2 -5,2l-72 0c-4,0 -6,-3 -6,-9 0,-6 3,-11 10,-15 6,-4 9,-8 10,-12l50 -210c1,-3 2,-6 2,-8 0,-4 -4,-7 -12,-10 -4,-1 -5,-4 -5,-9 0,-7 0,-11 1,-12 1,-2 4,-3 9,-3l104 0c6,0 11,2 13,6 3,4 5,13 8,26 1,5 2,10 3,15l45 196c2,9 7,16 15,21 3,2 4,3 5,3 0,1 1,4 1,7 0,7 -1,10 -2,12 -1,1 -4,2 -8,2l-121 0c-3,0 -5,-3 -5,-7 0,-6 1,-9 1,-11 1,-1 4,-3 8,-5 7,-2 10,-6 10,-10 0,-4 -2,-14 -6,-29zm-33 -158l-30 138 60 0 -30 -138zm293 200l15 0c9,0 15,-2 18,-7 4,-4 9,-13 16,-29 2,-5 4,-9 7,-10 3,-2 9,-2 16,-2 8,0 13,0 15,1 3,1 4,3 4,5 0,2 -1,4 -1,8l-10 43c-1,4 -2,7 -4,9 -2,1 -5,2 -11,2l-179 0c-7,0 -11,-3 -11,-10 0,-4 1,-7 2,-9 1,-1 3,-2 6,-3 10,-2 15,-8 15,-19l0 -211c0,-4 -3,-7 -10,-9 -5,-2 -9,-4 -10,-5 -1,-2 -2,-6 -2,-10 0,-5 1,-8 2,-10 1,-1 4,-2 8,-2l126 0c5,0 8,1 10,3 1,1 2,5 2,12 0,4 0,6 -2,8 -1,1 -4,2 -9,3 -9,2 -13,6 -13,12l0 230zm296 -186l71 169c2,6 7,10 13,12 4,1 7,5 7,10 0,0 -1,4 -1,10 -1,3 -4,5 -12,5l-107 0c-4,0 -7,-1 -8,-2 -1,-1 -2,-3 -2,-8 0,0 0,-3 0,-9 1,-2 3,-3 7,-4 6,-2 8,-4 8,-7 0,-1 0,-2 0,-3l-38 -90 -9 13 0 73c0,6 4,11 12,14 3,1 5,4 5,9 0,5 -1,9 -2,11 -2,2 -5,3 -11,3l-114 0c-4,0 -7,-1 -9,-2 -1,-1 -2,-4 -2,-10 0,-5 1,-8 2,-9 1,-2 4,-3 7,-4 7,-2 10,-5 10,-10l0 -213c0,-6 -3,-10 -10,-12 -4,-2 -7,-3 -8,-5 -1,-1 -1,-3 -1,-7 0,-8 0,-12 1,-14 1,-1 4,-2 8,-2l125 0c5,0 8,2 8,5 0,10 0,15 -1,17 0,1 -3,3 -7,5 -9,3 -13,6 -13,11l0 91 59 -88c3,-5 4,-9 4,-11 0,-2 -2,-3 -6,-5 -5,-3 -8,-4 -9,-6 -1,-2 -1,-5 -1,-12 0,-4 3,-7 8,-7l72 0c4,0 7,1 8,2 0,1 1,4 1,9 0,6 -1,9 -2,10 -1,1 -5,3 -11,4 -5,1 -8,2 -9,3 -1,1 -3,2 -4,5l-39 49z"/>
   <circle class="fil2 str0" cx="842" cy="842" r="750"/>
  </g>
 </g>
</svg>
